<svg xmlns="http://www.w3.org/2000/svg" viewBox="0 0 1800 1100"><rect width="1800" height="1100" fill="#f8fafc"/><circle cx="1420" cy="240" r="250" fill="#dbeafe"/><circle cx="350" cy="830" r="300" fill="#e0f2fe"/><rect x="210" y="180" width="620" height="740" rx="64" fill="#111827"/><rect x="270" y="260" width="500" height="560" rx="42" fill="#fff"/><circle cx="520" cy="875" r="34" fill="#2563eb"/><path d="M1060 380c0-94 76-170 170-170s170 76 170 170v160c0 94-76 170-170 170s-170-76-170-170V380Z" fill="#111827"/><path d="M1124 382c0-58 47-105 106-105s106 47 106 105v154c0 58-47 105-106 105s-106-47-106-105V382Z" fill="#fff"/><path d="M1188 390c0-23 19-42 42-42s42 19 42 42v142c0 23-19 42-42 42s-42-19-42-42V390Z" fill="#2563eb"/></svg>
